<mxfile host="app.diagrams.net" modified="2021-02-05T14:56:01.771Z" agent="5.0 (Windows NT 10.0; Win64; x64) AppleWebKit/537.36 (KHTML, like Gecko) Chrome/88.0.4324.146 Safari/537.36" etag="2CsGTsPiuYRUypKY0VQR" version="14.2.9" type="github">
  <diagram id="C5RBs43oDa-KdzZeNtuy" name="Page-1">
    <mxGraphModel dx="1038" dy="532" grid="1" gridSize="10" guides="1" tooltips="1" connect="1" arrows="1" fold="1" page="1" pageScale="1" pageWidth="827" pageHeight="1169" math="0" shadow="0">
      <root>
        <mxCell id="WIyWlLk6GJQsqaUBKTNV-0" />
        <mxCell id="WIyWlLk6GJQsqaUBKTNV-1" parent="WIyWlLk6GJQsqaUBKTNV-0" />
        <mxCell id="BcAus7WSTGd4Gavl9shO-0" value="Subjects" style="swimlane;fontStyle=1;align=center;verticalAlign=top;childLayout=stackLayout;horizontal=1;startSize=26;horizontalStack=0;resizeParent=1;resizeParentMax=0;resizeLast=0;collapsible=1;marginBottom=0;" vertex="1" parent="WIyWlLk6GJQsqaUBKTNV-1">
          <mxGeometry x="120" y="40" width="320" height="520" as="geometry" />
        </mxCell>
        <mxCell id="BcAus7WSTGd4Gavl9shO-1" value="- MarkahCOA: SimpleStringProperty&#xa;- MarkahCalculus: SimpleStringProperty&#xa;- MarkahDatabase: SimpleStringProperty&#xa;- MarkahMultimedia: SimpleStringProperty&#xa;- MarkahProgramming: SimpleStringProperty&#xa;- Nama: SimpleStringProperty&#xa;- Result: SimpleStringProperty&#xa;- COA: String&#xa;- DB: String&#xa;- MM: String&#xa;- CALC: String&#xa;- PROG: String&#xa;- GPA: double" style="text;strokeColor=none;fillColor=none;align=left;verticalAlign=top;spacingLeft=4;spacingRight=4;overflow=hidden;rotatable=0;points=[[0,0.5],[1,0.5]];portConstraint=eastwest;" vertex="1" parent="BcAus7WSTGd4Gavl9shO-0">
          <mxGeometry y="26" width="320" height="194" as="geometry" />
        </mxCell>
        <mxCell id="BcAus7WSTGd4Gavl9shO-2" value="" style="line;strokeWidth=1;fillColor=none;align=left;verticalAlign=middle;spacingTop=-1;spacingLeft=3;spacingRight=3;rotatable=0;labelPosition=right;points=[];portConstraint=eastwest;" vertex="1" parent="BcAus7WSTGd4Gavl9shO-0">
          <mxGeometry y="220" width="320" height="18" as="geometry" />
        </mxCell>
        <mxCell id="BcAus7WSTGd4Gavl9shO-3" value="+ Subjects()&#xa;+ Subjects(String,String,String,String,String,String,String)&#xa;+ Subjects(String,String,String,String,String)&#xa;+ getName():String&#xa;+ setName(String):void&#xa;+ getResult():String&#xa;+ setResult(String):void&#xa;+ getCOA():String&#xa;+ setCOA(String):void&#xa;+ getCalc():String&#xa;+ setCalc(String):void&#xa;+ getDB():String&#xa;+ setDB(String):void&#xa;+ getMM():String&#xa;+ setMM(String):void&#xa;+ getProg():String&#xa;+ setProg(String):void&#xa;+ Calculation(double,double,double,double,double):void&#xa;+ Result():double&#xa;" style="text;strokeColor=none;fillColor=none;align=left;verticalAlign=top;spacingLeft=4;spacingRight=4;overflow=hidden;rotatable=0;points=[[0,0.5],[1,0.5]];portConstraint=eastwest;" vertex="1" parent="BcAus7WSTGd4Gavl9shO-0">
          <mxGeometry y="238" width="320" height="282" as="geometry" />
        </mxCell>
        <mxCell id="BcAus7WSTGd4Gavl9shO-4" value="CalculateGPA" style="swimlane;fontStyle=1;align=center;verticalAlign=top;childLayout=stackLayout;horizontal=1;startSize=26;horizontalStack=0;resizeParent=1;resizeParentMax=0;resizeLast=0;collapsible=1;marginBottom=0;" vertex="1" parent="WIyWlLk6GJQsqaUBKTNV-1">
          <mxGeometry x="90" y="670" width="310" height="90" as="geometry" />
        </mxCell>
        <mxCell id="BcAus7WSTGd4Gavl9shO-6" value="" style="line;strokeWidth=1;fillColor=none;align=left;verticalAlign=middle;spacingTop=-1;spacingLeft=3;spacingRight=3;rotatable=0;labelPosition=right;points=[];portConstraint=eastwest;" vertex="1" parent="BcAus7WSTGd4Gavl9shO-4">
          <mxGeometry y="26" width="310" height="8" as="geometry" />
        </mxCell>
        <mxCell id="BcAus7WSTGd4Gavl9shO-7" value="+ Calculation(double,double,double,double,double):void&#xa;+ Result():double" style="text;strokeColor=none;fillColor=none;align=left;verticalAlign=top;spacingLeft=4;spacingRight=4;overflow=hidden;rotatable=0;points=[[0,0.5],[1,0.5]];portConstraint=eastwest;" vertex="1" parent="BcAus7WSTGd4Gavl9shO-4">
          <mxGeometry y="34" width="310" height="56" as="geometry" />
        </mxCell>
        <mxCell id="BcAus7WSTGd4Gavl9shO-8" value="MarkCOA" style="swimlane;fontStyle=1;align=center;verticalAlign=top;childLayout=stackLayout;horizontal=1;startSize=26;horizontalStack=0;resizeParent=1;resizeParentMax=0;resizeLast=0;collapsible=1;marginBottom=0;" vertex="1" parent="WIyWlLk6GJQsqaUBKTNV-1">
          <mxGeometry x="550" y="40" width="180" height="130" as="geometry" />
        </mxCell>
        <mxCell id="BcAus7WSTGd4Gavl9shO-9" value="- MarkahCOA:String" style="text;strokeColor=none;fillColor=none;align=left;verticalAlign=top;spacingLeft=4;spacingRight=4;overflow=hidden;rotatable=0;points=[[0,0.5],[1,0.5]];portConstraint=eastwest;" vertex="1" parent="BcAus7WSTGd4Gavl9shO-8">
          <mxGeometry y="26" width="180" height="26" as="geometry" />
        </mxCell>
        <mxCell id="BcAus7WSTGd4Gavl9shO-10" value="" style="line;strokeWidth=1;fillColor=none;align=left;verticalAlign=middle;spacingTop=-1;spacingLeft=3;spacingRight=3;rotatable=0;labelPosition=right;points=[];portConstraint=eastwest;" vertex="1" parent="BcAus7WSTGd4Gavl9shO-8">
          <mxGeometry y="52" width="180" height="8" as="geometry" />
        </mxCell>
        <mxCell id="BcAus7WSTGd4Gavl9shO-11" value="+ MarkCOA()&#xa;+ getMarkahCOA():String&#xa;+ setMarkahCOA(String): void" style="text;strokeColor=none;fillColor=none;align=left;verticalAlign=top;spacingLeft=4;spacingRight=4;overflow=hidden;rotatable=0;points=[[0,0.5],[1,0.5]];portConstraint=eastwest;" vertex="1" parent="BcAus7WSTGd4Gavl9shO-8">
          <mxGeometry y="60" width="180" height="70" as="geometry" />
        </mxCell>
        <mxCell id="BcAus7WSTGd4Gavl9shO-12" value="MarkCalculus" style="swimlane;fontStyle=1;align=center;verticalAlign=top;childLayout=stackLayout;horizontal=1;startSize=26;horizontalStack=0;resizeParent=1;resizeParentMax=0;resizeLast=0;collapsible=1;marginBottom=0;" vertex="1" parent="WIyWlLk6GJQsqaUBKTNV-1">
          <mxGeometry x="550" y="210" width="180" height="130" as="geometry" />
        </mxCell>
        <mxCell id="BcAus7WSTGd4Gavl9shO-13" value="- MarkahCalculus:String" style="text;strokeColor=none;fillColor=none;align=left;verticalAlign=top;spacingLeft=4;spacingRight=4;overflow=hidden;rotatable=0;points=[[0,0.5],[1,0.5]];portConstraint=eastwest;" vertex="1" parent="BcAus7WSTGd4Gavl9shO-12">
          <mxGeometry y="26" width="180" height="26" as="geometry" />
        </mxCell>
        <mxCell id="BcAus7WSTGd4Gavl9shO-14" value="" style="line;strokeWidth=1;fillColor=none;align=left;verticalAlign=middle;spacingTop=-1;spacingLeft=3;spacingRight=3;rotatable=0;labelPosition=right;points=[];portConstraint=eastwest;" vertex="1" parent="BcAus7WSTGd4Gavl9shO-12">
          <mxGeometry y="52" width="180" height="8" as="geometry" />
        </mxCell>
        <mxCell id="BcAus7WSTGd4Gavl9shO-15" value="+ MarkahCalculus()&#xa;+ getMarkahCalculus():String&#xa;+ setMarkahCalculus(String): void" style="text;strokeColor=none;fillColor=none;align=left;verticalAlign=top;spacingLeft=4;spacingRight=4;overflow=hidden;rotatable=0;points=[[0,0.5],[1,0.5]];portConstraint=eastwest;" vertex="1" parent="BcAus7WSTGd4Gavl9shO-12">
          <mxGeometry y="60" width="180" height="70" as="geometry" />
        </mxCell>
        <mxCell id="BcAus7WSTGd4Gavl9shO-16" value="MarkDatabase" style="swimlane;fontStyle=1;align=center;verticalAlign=top;childLayout=stackLayout;horizontal=1;startSize=26;horizontalStack=0;resizeParent=1;resizeParentMax=0;resizeLast=0;collapsible=1;marginBottom=0;" vertex="1" parent="WIyWlLk6GJQsqaUBKTNV-1">
          <mxGeometry x="550" y="380" width="200" height="130" as="geometry" />
        </mxCell>
        <mxCell id="BcAus7WSTGd4Gavl9shO-17" value="- MarkahDatabase:String" style="text;strokeColor=none;fillColor=none;align=left;verticalAlign=top;spacingLeft=4;spacingRight=4;overflow=hidden;rotatable=0;points=[[0,0.5],[1,0.5]];portConstraint=eastwest;" vertex="1" parent="BcAus7WSTGd4Gavl9shO-16">
          <mxGeometry y="26" width="200" height="26" as="geometry" />
        </mxCell>
        <mxCell id="BcAus7WSTGd4Gavl9shO-18" value="" style="line;strokeWidth=1;fillColor=none;align=left;verticalAlign=middle;spacingTop=-1;spacingLeft=3;spacingRight=3;rotatable=0;labelPosition=right;points=[];portConstraint=eastwest;" vertex="1" parent="BcAus7WSTGd4Gavl9shO-16">
          <mxGeometry y="52" width="200" height="8" as="geometry" />
        </mxCell>
        <mxCell id="BcAus7WSTGd4Gavl9shO-19" value="+ MarkahDatabase()&#xa;+ getMarkahDatabase():String&#xa;+ setMarkahDatabase(String): void" style="text;strokeColor=none;fillColor=none;align=left;verticalAlign=top;spacingLeft=4;spacingRight=4;overflow=hidden;rotatable=0;points=[[0,0.5],[1,0.5]];portConstraint=eastwest;" vertex="1" parent="BcAus7WSTGd4Gavl9shO-16">
          <mxGeometry y="60" width="200" height="70" as="geometry" />
        </mxCell>
        <mxCell id="BcAus7WSTGd4Gavl9shO-20" value="MarkMultimedia" style="swimlane;fontStyle=1;align=center;verticalAlign=top;childLayout=stackLayout;horizontal=1;startSize=26;horizontalStack=0;resizeParent=1;resizeParentMax=0;resizeLast=0;collapsible=1;marginBottom=0;" vertex="1" parent="WIyWlLk6GJQsqaUBKTNV-1">
          <mxGeometry x="550" y="540" width="210" height="130" as="geometry" />
        </mxCell>
        <mxCell id="BcAus7WSTGd4Gavl9shO-21" value="- MarkahMultimedia:String" style="text;strokeColor=none;fillColor=none;align=left;verticalAlign=top;spacingLeft=4;spacingRight=4;overflow=hidden;rotatable=0;points=[[0,0.5],[1,0.5]];portConstraint=eastwest;" vertex="1" parent="BcAus7WSTGd4Gavl9shO-20">
          <mxGeometry y="26" width="210" height="26" as="geometry" />
        </mxCell>
        <mxCell id="BcAus7WSTGd4Gavl9shO-22" value="" style="line;strokeWidth=1;fillColor=none;align=left;verticalAlign=middle;spacingTop=-1;spacingLeft=3;spacingRight=3;rotatable=0;labelPosition=right;points=[];portConstraint=eastwest;" vertex="1" parent="BcAus7WSTGd4Gavl9shO-20">
          <mxGeometry y="52" width="210" height="8" as="geometry" />
        </mxCell>
        <mxCell id="BcAus7WSTGd4Gavl9shO-23" value="+ MarkMultimedia()&#xa;+ getMarkahMultimedia():String&#xa;+ setMarkahMultimedia(String): void" style="text;strokeColor=none;fillColor=none;align=left;verticalAlign=top;spacingLeft=4;spacingRight=4;overflow=hidden;rotatable=0;points=[[0,0.5],[1,0.5]];portConstraint=eastwest;" vertex="1" parent="BcAus7WSTGd4Gavl9shO-20">
          <mxGeometry y="60" width="210" height="70" as="geometry" />
        </mxCell>
        <mxCell id="BcAus7WSTGd4Gavl9shO-24" value="" style="endArrow=block;dashed=1;endFill=0;endSize=12;html=1;exitX=0.5;exitY=0;exitDx=0;exitDy=0;" edge="1" parent="WIyWlLk6GJQsqaUBKTNV-1" source="BcAus7WSTGd4Gavl9shO-4">
          <mxGeometry width="160" relative="1" as="geometry">
            <mxPoint x="270" y="500" as="sourcePoint" />
            <mxPoint x="244" y="560" as="targetPoint" />
          </mxGeometry>
        </mxCell>
        <mxCell id="BcAus7WSTGd4Gavl9shO-25" value="" style="endArrow=block;endSize=16;endFill=0;html=1;entryX=1;entryY=0.5;entryDx=0;entryDy=0;exitX=0;exitY=0.5;exitDx=0;exitDy=0;" edge="1" parent="WIyWlLk6GJQsqaUBKTNV-1" source="BcAus7WSTGd4Gavl9shO-17" target="BcAus7WSTGd4Gavl9shO-3">
          <mxGeometry width="160" relative="1" as="geometry">
            <mxPoint x="270" y="500" as="sourcePoint" />
            <mxPoint x="430" y="500" as="targetPoint" />
          </mxGeometry>
        </mxCell>
        <mxCell id="BcAus7WSTGd4Gavl9shO-26" value="" style="endArrow=block;endSize=16;endFill=0;html=1;entryX=1.005;entryY=0.779;entryDx=0;entryDy=0;entryPerimeter=0;exitX=0;exitY=0.5;exitDx=0;exitDy=0;" edge="1" parent="WIyWlLk6GJQsqaUBKTNV-1" source="BcAus7WSTGd4Gavl9shO-21" target="BcAus7WSTGd4Gavl9shO-3">
          <mxGeometry width="160" relative="1" as="geometry">
            <mxPoint x="270" y="500" as="sourcePoint" />
            <mxPoint x="430" y="500" as="targetPoint" />
          </mxGeometry>
        </mxCell>
        <mxCell id="BcAus7WSTGd4Gavl9shO-27" value="" style="endArrow=block;endSize=16;endFill=0;html=1;entryX=1;entryY=0.943;entryDx=0;entryDy=0;entryPerimeter=0;exitX=0;exitY=0.5;exitDx=0;exitDy=0;" edge="1" parent="WIyWlLk6GJQsqaUBKTNV-1" source="BcAus7WSTGd4Gavl9shO-13" target="BcAus7WSTGd4Gavl9shO-1">
          <mxGeometry width="160" relative="1" as="geometry">
            <mxPoint x="270" y="400" as="sourcePoint" />
            <mxPoint x="430" y="400" as="targetPoint" />
          </mxGeometry>
        </mxCell>
        <mxCell id="BcAus7WSTGd4Gavl9shO-28" value="" style="endArrow=block;endSize=16;endFill=0;html=1;exitX=0;exitY=0.5;exitDx=0;exitDy=0;entryX=1.002;entryY=0.074;entryDx=0;entryDy=0;entryPerimeter=0;" edge="1" parent="WIyWlLk6GJQsqaUBKTNV-1" source="BcAus7WSTGd4Gavl9shO-9" target="BcAus7WSTGd4Gavl9shO-1">
          <mxGeometry width="160" relative="1" as="geometry">
            <mxPoint x="270" y="200" as="sourcePoint" />
            <mxPoint x="430" y="200" as="targetPoint" />
          </mxGeometry>
        </mxCell>
        <mxCell id="BcAus7WSTGd4Gavl9shO-30" value="MarkProgramming" style="swimlane;fontStyle=1;align=center;verticalAlign=top;childLayout=stackLayout;horizontal=1;startSize=26;horizontalStack=0;resizeParent=1;resizeParentMax=0;resizeLast=0;collapsible=1;marginBottom=0;" vertex="1" parent="WIyWlLk6GJQsqaUBKTNV-1">
          <mxGeometry x="510" y="700" width="230" height="130" as="geometry" />
        </mxCell>
        <mxCell id="BcAus7WSTGd4Gavl9shO-31" value="- MarkahProgramming:String" style="text;strokeColor=none;fillColor=none;align=left;verticalAlign=top;spacingLeft=4;spacingRight=4;overflow=hidden;rotatable=0;points=[[0,0.5],[1,0.5]];portConstraint=eastwest;" vertex="1" parent="BcAus7WSTGd4Gavl9shO-30">
          <mxGeometry y="26" width="230" height="26" as="geometry" />
        </mxCell>
        <mxCell id="BcAus7WSTGd4Gavl9shO-32" value="" style="line;strokeWidth=1;fillColor=none;align=left;verticalAlign=middle;spacingTop=-1;spacingLeft=3;spacingRight=3;rotatable=0;labelPosition=right;points=[];portConstraint=eastwest;" vertex="1" parent="BcAus7WSTGd4Gavl9shO-30">
          <mxGeometry y="52" width="230" height="8" as="geometry" />
        </mxCell>
        <mxCell id="BcAus7WSTGd4Gavl9shO-33" value="+ MarkProgramming()&#xa;+ getMarkahProgramming():String&#xa;+ setMarkahProgramming(String): void" style="text;strokeColor=none;fillColor=none;align=left;verticalAlign=top;spacingLeft=4;spacingRight=4;overflow=hidden;rotatable=0;points=[[0,0.5],[1,0.5]];portConstraint=eastwest;" vertex="1" parent="BcAus7WSTGd4Gavl9shO-30">
          <mxGeometry y="60" width="230" height="70" as="geometry" />
        </mxCell>
        <mxCell id="BcAus7WSTGd4Gavl9shO-34" value="" style="endArrow=block;endSize=16;endFill=0;html=1;entryX=0.912;entryY=1.001;entryDx=0;entryDy=0;entryPerimeter=0;exitX=0;exitY=0.5;exitDx=0;exitDy=0;" edge="1" parent="WIyWlLk6GJQsqaUBKTNV-1" source="BcAus7WSTGd4Gavl9shO-31" target="BcAus7WSTGd4Gavl9shO-3">
          <mxGeometry width="160" relative="1" as="geometry">
            <mxPoint x="410" y="690" as="sourcePoint" />
            <mxPoint x="570" y="690" as="targetPoint" />
          </mxGeometry>
        </mxCell>
      </root>
    </mxGraphModel>
  </diagram>
</mxfile>
